/* XPM */
static char *ff7596b0c807415aafadd92ebf29f09bEMmsqQdSJhQlaS2C[] = {
/* columns rows colors chars-per-pixel */
"100 100 16 1 ",
"  c black",
". c #050914",
"X c #FFCF8E",
"o c #ED7B39",
"O c #BD4035",
"+ c #5B537D",
"@ c #392946",
"# c #24142C",
"$ c #928FB8",
"% c #ED4C40",
"& c #FFB84A",
"* c #0E0F2C",
"= c #100726",
"- c #10908E",
"; c #D41E3C",
": c #9B0E3E",
/* pixels */
"                                                                                                    ",
"                                                                                                    ",
"                                                                                                    ",
"   ..............................................................................................   ",
"  .XXXXXXXXXXXXXXXXXXXXXXXXXXXXXXXXXXXXXXXXXXXXXXXXXXXXXXXXXXXXXXXXXXXXXXXXXXXXXXXXXXXXXXXXXXXXoo.  ",
" .XooooooooooooooooooooooooooooooooooooooooooooooooooooooooooooooooooooooooooooooooooooooooooooooO. ",
" .XoooOOOOOOOOOOOOOOOOOOOOOOOOOOOOOOOOOOOOOOOOOOOOOOOOOOOOOOOOOOOOOOOOOOOOOOOOOOOOOOOOOOOOOOOOoooO. ",
" .XooO........................................................................................OooO. ",
" .XoO.+++++++++++++++++++++++++++++++++++++++++++++++++++++++++++++++++++++++++++++++++++++++..ooO. ",
" .XoO.+@@@@@@@@@@@@@@@@@@@@@@@@@@@@@@@@@@@@@@@@@@@@@@@@@@@@@@@@@@@@@@@@@@@@@@@@@@@@@@@@@@@@@@#.XoO. ",
" .XoO.+@@@@@@@@@@@@@@@@@@@@@@@@@@@@@@@@@@@@@@@@@@@@@@@@@@@@@@@@@@@@@@@@@@@@@@@@@@@@@@@@@@@@@@#.XoO. ",
" .XoO.+@@@@@@@@@@@@@@@@@@@@@@@@@@@@@@@@@@@@@@@@@@@@@@@@@@@@@@@@@@@@@@@@@@@@@@@@@@@@@@@@@@@@@@#.XoO. ",
" .XoO.+@@@@@@@@@@@@@@@@@@@@@@@@@@@@@@@@@@@@@@@@@@@@@@@@@@@@@@@@@@@@@@@@@@@@@@@@@@@@@@@@@@@@@@#.XoO. ",
" .XoO.+@@@@@@@@@@@@@@@@@@@@@@@@@@@@@@@@@@@@@@@@@@@@@@@@@@@@@@@@@@@@@@@@@@@@@@@@@@@@@@@@@@@@@@#.XoO. ",
" .XoO.+@@@@@@@@@@@@@@@.....................@@@@@@@@@@@@@@.....................@@@@@@@@@@@@@@@#.XoO. ",
" .XoO.+@@@@@@@@@@@@@@.XXXXXXXXXXXXXXXXXXXoO.@@@@@@@@@@@@.XXXXXXXXXXXXXXXXXXXoO.@@@@@@@@@@@@@@#.XoO. ",
" .XoO.+@@@@@@@@@@@@@.X+...................@O.@@@@@@@@@@.X+...................@O.@@@@@@@@@@@@@#.XoO. ",
" .XoO.+@@@@@@@@@@@@@.X.$+++++++++++++++++@.O.@@@@@@@@@@.X.$+++++++++++++++++@.O.@@@@@@@@@@@@@#.XoO. ",
" .XoO.+@@@@@@@@@@@@@.X+...................@O.@@@@@@@@@@.X+...................@O.@@@@@@@@@@@@@#.XoO. ",
" .XoO.+@@@@@@@@@@@@@.X.$+++++++++++++++++@.O.@@@@@@@@@@.X.$+++++++++++++++++@.O.@@@@@@@@@@@@@#.XoO. ",
" .XoO.+@@@@@@@@@@@@@.X+...................@O.@@@@@@@@@@.X+...................@O.@@@@@@@@@@@@@#.XoO. ",
" .XoO.+@@@@@@@@@@@@@.X.$+++++++++++++++++@.O.@@@@@@@@@@.X.$+++++++++++++++++@.O.@@@@@@@@@@@@@#.XoO. ",
" .XoO.+@@@@@@@@@@@@@.X+...................@O.@@@@@@@@@@.X+...................@O.@@@@@@@@@@@@@#.XoO. ",
" .XoO.+@@@@@@@@@@@@@.X.$+++++++++++++++++@.O.@@@@@@@@@@.X.$+++++++++++++++++@.O.@@@@@@@@@@@@@#.XoO. ",
" .XoO.+@@@@@@@@@@@@@.X+...................@O.@@@@@@@@@@.X+...................@O.@@@@@@@@@@@@@#.XoO. ",
" .XoO.+@@@@@@@@@@@@@.X.+@@@@@@@@@@@@@@@@@#.O.@@@@@@@@@@.X.+@@@@@@@@@@@@@@@@@#.O.@@@@@@@@@@@@@#.XoO. ",
" .XoO.+@@@@@@@@@@@@@.X.....................O.@@@@@@@@@@.X.....................O.@@@@@@@@@@@@@#.XoO. ",
" .XoO.+@@@@@@@@@@@@@@.XoooooooooooooooooooO.@@@@@@@@@@@@.XoooooooooooooooooooO.@@@@@@@@@@@@@@#.XoO. ",
" .XoO.+@@@@@@@@@@@@@@@.....................@@@@@@@@@@@@@@.....................@@@@@@@@@@@@@@@#.XoO. ",
" .XoO.+@@@@@@@@@@@@@@@@@@@@@@@@@@@@@@@@@@@@@@@@@@@@@@@@@@@@@@@@@@@@@@@@@@@@@@@@@@@@@@@@@@@@@@#.XoO. ",
" .XoO.+@@@@@@@@@@@@@@@@@@@@@@@@@@@@@@@@@@@@@@@@@@@@@@@@@@@@@@@@@@@@@@@@@@@@@@@@@@@@@@@@@@@@@@#.XoO. ",
" .XoO.+@@@@@@@@@@@@@@@@@@@@@@@@@@@@@@@@@@@@@@@@@@@@@@@@@@@@@@@@@@@@@@@@@@@@@@@@@@@@@@@@@@@@@@#.XoO. ",
" .XoO.+@@@@@@@@@@@@@@@@@@@@@@@@@@@@@@@@@@@@@@@@@@@@@@@@@@@@@@@@@@@@@@@@@@@@@@@@@@@@@@@@@@@@@@#.XoO. ",
" .XoO.+@@@@@@@@@@@@@@@@@@@@@@@@@@@@@@@@@@@@@@@@@@@@@@@@@@@@@@@@@@@@@@@@@@@@@@@@@@@@@@@@@@@@@@#.XoO. ",
" .XoO.+@@@@@@@@@@@@@@@@@@@@@@@@@@@@@@@@@@@@@@@@@@@@@@@@@@@@@@@@@@@@@@@@@@@@@@@@@@@@@@@@@@@@@@#.XoO. ",
" .XoO.+@@@@@@@@@@@@@@@@@@@@@@@@@@@@@@@@@@@@@@@@@@@@@@@@@@@@@@@@@@@@@@@@@@@@@@@@@@@@@@@@@@@@@@#.XoO. ",
" .XoO.#........................................................................................XoO. ",
" .XoO.@###%#&#%##########%#&#%################%#&#%#%#&#%#############%#&#%##########%#%#&###..XoO. ",
" .XoO.#........................................................................................XoO. ",
" .XoO.+@@@@@@@@@@.@@@@@@@@@@@@@@@@@@@@@@@@@@@@@@@@@@@@@@@@@@@@@@@@@@@@@@@@@@@@@@@@@@@@@@@@@@@#.XoO. ",
" .XoO.+@@@@@@@@@@.@@@@@@@@@@@@........................................@@@@@@@@@@@@@@@@@@@@@@@#.XoO. ",
" .XoO.+@@@@@@@@@@.@@@@@@@@@@@.XXXXXXXXXXXXXXXXXXXXXXXXXXXXXXXXXXXXXXXo.@@@@@@@@@@@@@@@@@@@@@@#.XoO. ",
" .XoO.+@@@@@@@@@@.@@@@@@@@@@.Xooooooooooooooooooooooooooooooooooooooooo.@@@@@@@@@@@@@@@@@@@@@#.XoO. ",
" .XoO.+@@@@@@@@@@.@@@@@@@@@.XooO....................................OooO.@@@@@@@@@@@@@@@@@@@@#.XoO. ",
" .XoO.+@@@@@@@@@@.@@@@@@@@@.XoO.++++++++++++++++++++################.OoO.@@@@@@@@@@@@@@@@@@@@#.XoO. ",
" .XoO.+@@@@@@@@@@.@@@@@@@@@.Xo.+@@@@@@@@@@@@@@@@@@@+#@@@@@@@@@@@@@@@#.oO.@@@@@@@@@@@@@@@@@@@@#.XoO. ",
" .XoO.+@@@@@@@@@@.@@@@@@@@@.Xo.+@@@@@@@@@@@@@@@@@@@+#@@@@@@@@@@@@@@@#.oO.@@@@@@@@@@@@@@@@@@@@#.XoO. ",
" .XoO.+@@@@@@@@@@.@@@@@@@@@.Xo.+@@@@@@@@@@@@@@@@@@@+#@@@@@@@@@@@@@@@#.oO.@@@@@@@@@@@@@@@@@@@@#.XoO. ",
" .XoO.+@@@@@@@@@@.@@@@@@@@@.Xo.+@@@@@@@@@@@@@@@@@@@+#@@@@@@@@@@@@@@@#.oO.@@@..............@@@#.XoO. ",
" .XoO.+@@@@@@@@@@.@@@@@@@@@.Xo.+@@@@@@@@@@@@@@@@@@@+#@@@@@@@@@@@@@@@#.oO.@@.##############.@@#.XoO. ",
" .XoO.+@@@@............@@@@.Xo.+@@@@@@@@@@@@@@@@@@@+#@@@@@@@@@@@@@@@#.oO.@@.#.##########.#.@@#.XoO. ",
" .XoO.+@@@.############.@@@.Xo.+@@@@@@@@@@@@@@@@@@@+#@@@@@@@@@@@@@@@#.oO.@@.##############.@@#.XoO. ",
" .XoO.+@@@.#.########.#.@@@.Xo.+@@@@@@@@@@@@@@@@@@@+#@@@@@@@@@@@@@@@#.oO.@@.##..........##.@@#.XoO. ",
" .XoO.+@@@.############.@@@.Xo.+@@@@@@@@@@@@@@@@@@@+#@@@@@@@@@@@@@@@#.oO.@@.#.**********.#.@@#.XoO. ",
" .XoO.+@@@.############.@@@.Xo.+@@@@@@@@@@@@@@@@@@@+#@@@@@@@@@@@@@@@#.oO.@@.#.*========*.#.@@#.XoO. ",
" .XoO.+@@@.############.@@@.Xo.+@@@@@@@@@@@@@@@@@@@+#@@@@@@@@@@@@@@@#.oO.@@.#.*=--=--==*.#.@@#.XoO. ",
" .XoO.+@@@.############.@@@.Xo.+@@@@@@@@@@@@@@@@@@@+#@@@@@@@@@@@@@@@#.oO.@@.#.*========*.#.@@#.XoO. ",
" .XoO.+@@@.############.@@@.Xo.+@@@@@@@@@@@@@@@@@@@+#@@@@@@@@@@@@@@@#.oO.@@.#.*=-=-=--=*.#.@@#.XoO. ",
" .XoO.+@@@.############.@@@.Xo.+@@@@@@@@@@@@@@@@@@@+#@@@@@@@@@@@@@@@#.oO.@@.#.*========*.#.@@#.XoO. ",
" .XoO.+@@@.############.@@@.Xo.+@@@@@@@@@@@@@@@@@@@+#@@@@@@@@@@@@@@@#.oO.@@.#.*========*.#.@@#.XoO. ",
" .XoO.+@@@.############.@@@.Xo.+@@@@@@@@@@@@@@@@@@@+#@@@@@@@@@@@@@@@#.oO.@@.#.**********.#.@@#.XoO. ",
" .XoO.+@@@.#.########.#.@@@.Xo.+@@@@@@@@@@@@@@@@@@+#@@@@@@@@@@@@@@@@#.oO.@@.##..........##.@@#.XoO. ",
" .XoO.+@@@.############.@@@.Xo.+@@@@@@@@@@@@@@@@@+#@@@@@@@@@@@@@@@@@#.oO.@@.##############.@@#.XoO. ",
" .XoO.+@@@@............@@@@.Xo.+@@@@@@@@@@@@@@@@+#@@@@@@@@@@@@@@@@@@#.oO.@@.#.#........#.#.@@#.XoO. ",
" .XoO.+@@@@@@@@@@.@@@@@@@@@.Xo.+@@@@@@@@@@@@@@@@+#@@@@@@@@@@@@@@@@@@#.oO.@@.##############.@@#.XoO. ",
" .XoO.+@@@@............@@@@.Xo.+@@@@@@@@@@@@@@@@+#@@@@@@@@@@@@@@@@@@#.oO.@@@..............@@@#.XoO. ",
" .XoO.+@@@.############.@@@.Xo.+@@@@@@@@@@@@@@@@+#@@@@@@@@@@@@@@@@@@#.oO.@@@@@@@@@@@@@@@@@@@@#.XoO. ",
" .XoO.+@@@.#.########.#.@@@.Xo.+@@@@@@@@@@@@@@@@+#@@@@@@@@@@@@@@@@@@#.oO.@@@@@@@@@@@@@@@@@@@@#.XoO. ",
" .XoO.+@@@.############.@@@.Xo.+@@@@@@@@@@@@@@@@+#@@@@@@@@@@@@@@@@@@#.oO.@@@..............@@@#.XoO. ",
" .XoO.+@@@.############.@@@.Xo.+@@@@@@@@@@@@@@@@+#@@@@@@@@@@@@@@@@@@#.oO.@@.##############.@@#.XoO. ",
" .XoO.+@@@.############.@@@.Xo.+@@@@@@@@@@@@@@@@+#@@@@@@@@@@@@@@@@@@#.oO.@@.#.#........#.#.@@#.XoO. ",
" .XoO.+@@@.############.@@@.Xo.+@@@@@@@@@@@@@@@@+#@@@@@@@@@@@@@@@@@@#.oO.@@.##.;;.;;.;;.##.@@#.XoO. ",
" .XoO.+@@@.############.@@@.Xo.+@@@@@@@@@@@@@@@@+#@@@@@@@@@@@@@@@@@@#.oO.@@.##.;;#;;#;;.##.@@#.XoO. ",
" .XoO.+@@@.############.@@@.Xo.+@@@@@@@@@@@@@@@@+#@@@@@@@@@@@@@@@@@@#.oO.@@.##.::.::.::.##.@@#.XoO. ",
" .XoO.+@@@.############.@@@.Xo.+@@@@@@@@@@@@@@@@+#@@@@@@@@@@@@@@@@@@#.oO.@@.#.#........#.#.@@#.XoO. ",
" .XoO.+@@@.#.########.#.@@@.Xo.+@@@@@@@@@@@@@@@@+#@@@@@@@@@@@@@@@@@@#.oO.@@.##############.@@#.XoO. ",
" .XoO.+@@@.############.@@@.Xo.+@@@@@@@@@@@@@@@@+#@@@@@@@@@@@@@@@@@@#.oO.@@@..............@@@#.XoO. ",
" .XoO.+@@@@............@@@@.Xo.+@@@@@@@@@@@@@@@@+#@@@@@@@@@@@@@@@@@@#.oO.@@@@@@@@@@@@@@@@@@@@#.XoO. ",
" .XoO.+@@@@@@@@@@.@@@@@@@@@.Xo.+@@@@@@@@@@@@@@@@+#@@@@@@@@@@@@@@@@@@#.oO.@@@@@@@@@@@@@@@@@@@@#.XoO. ",
" .XoO.+@@@@@@@@@@.@@@@@@@@@.Xo.+@@@@@@@@@@@@@@@@@+#@@@@@@@@@@@@@@@@@#.oO.@@@@@@@@@@@@@@@@@@@@#.XoO. ",
" .XoO.+@@@@@@@@@@.@@@@@@@@@.Xo.+@@@@@@@@@@@@@@@@@@+#@@@@@@@@@@@@@@@@#.oO.@@@@@@@@@@@@@@@@@@@@#.XoO. ",
" .XoO.+@@@@@@@@@@.@@@@@@@@@.Xo.+@@@@@@@@@@@@@@@@@@@+#@@@@@@@@@@@@@@@#.oO.@@@@@@@@@@@@@@@@@@@@#.XoO. ",
" .XoO.+@@@@@@@@@@.@@@@@@@@@.Xo.+@@@@@@@@@@@@@@@@@@@+#@@@@@@@@@@@@@@@#.oO.@@@@@@@@@@@@@@@@@@@@#.XoO. ",
" .XoO.+@@@@@@@@@@.@@@@@@@@@.Xo.+@@@@@@@@@@@@@@@@@@@+#@@@@@@@@@@@@@@@#.oO.@@@@@@@@@@@@@@@@@@@@#.XoO. ",
" .XoO.+@@@@@@@@@@.@@@@@@@@@.Xo.+@@@@@@@@@@@@@@@@@@@+#@@@@@@@@@@@@@@@#.oO.@@@@@@@@@@@@@@@@@@@@#.XoO. ",
" .XoO.+@@@@@@@@@@...........Xo.+@@@@@@@@@@@@@@@@@@@+#@@@@@@@@@@@@@@@#.oO.@@@@@@@@@@@@@@@@@@@@#.XoO. ",
" .XoO.+@@@@@@@@@@@@@@@@@@@@.Xo.+@@@@@@@@@@@@@@@@@@@+#@@@@@@@@@@@@@@@#.oO.@@@@@@@@@@@@@@@@@@@@#.XoO. ",
" .XoO.+@@@@@@@@@@@@@@@@@@@@.Xo.+@@@@@@@@@@@@@@@@@@@+#@@@@@@@@@@@@@@@#.oO.@@@@@@@@@@@@@@@@@@@@#.XoO. ",
" .XoO.+@@@@@@@@@@@@@@@@@@@@.Xo.+@@@@@@@@@@@@@@@@@@@+#@@@@@@@@@@@@@@@#.oO.@@@@@@@@@@@@@@@@@@@@#.XoO. ",
" .XoO.+@@@@@@@@@@@@@@@@@@@@.Xo.+@@@@@@@@@@@@@@@@@@@+#@@@@@@@@@@@@@@@#.oO.@@@@@@@@@@@@@@@@@@@@#.XoO. ",
" .XoO.+@@@@@@@@@@@@@@@@@@@@.Xo.+@@@@@@@@@@@@@@@@@@@+#@@@@@@@@@@@@@@@#.oO.@@@@@@@@@@@@@@@@@@@@#.XoO. ",
" .XoO.+@@@@@@@@@@@@@@@@@@@@.Xo.+@@@@@@@@@@@@@@@@@@@+#@@@@@@@@@@@@@@@#.oO.@@@@@@@@@@@@@@@@@@@@#.XoO. ",
" .XoO.+@@@.........@@@@@@@@.Xo.+@@@@@@@@@@@@@@@@@@@+#@@@@@@@@@@@@@@##.oO.@@@@@@@@.........@@@#.XoO. ",
" .XoO.+@@.#.#.#.#.#.@@@@@@@.Xoo.++++++++++++++++++++################.ooO.@@@@@@@.#.#.#.#.#.@@#.XoO. ",
" .XoO.....#.#.#.#.#.........XooX....................................XooO.........#.#.#.#.#.....XoO. ",
" .XoO.+@@.#.#.#.#.#.@@@@@@@@.oooXXXXXXXXXXXXXXXXXXXXXXXXXXXXXXXXXXXXooo.@@@@@@@@.#.#.#.#.#.@@#.XoO. ",
" .XoO.+@@.#.#.#.#.#.@@@@@@@@@.oooooooooooooooooooooooooooooooooooooooo.@@@@@@@@@.#.#.#.#.#.@@#.XoO. ",
" ..............................................................................................XoO. ",
"                                                                                                    ",
"   ..............................................................................................   "
};
