/* XPM */
static char *_16c012a0f8c45ced0e48eb1c523a36f5yyo9VzG0dpDYaPV[] = {
/* columns rows colors chars-per-pixel */
"100 100 17 1 ",
"  c None",
". c black",
"X c #050914",
"o c #0E0F2C",
"O c #100726",
"+ c #24142C",
"@ c #392946",
"# c #5B537D",
"$ c #9B0E3E",
"% c #D41E3C",
"& c #BD4035",
"* c #ED7B39",
"= c #ED4C40",
"- c #FFB84A",
"; c #10908E",
": c #928FB8",
"> c #FFCF8E",
/* pixels */
"....................................................................................................",
"....................................................................................................",
"....................................................................................................",
"...XXXXXXXXXXXXXXXXXXXXXXXXXXXXXXXXXXXXXXXXXXXXXXXXXXXXXXXXXXXXXXXXXXXXXXXXXXXXXXXXXXXXXXXXXXXXXX...",
"..X>>>>>>>>>>>>>>>>>>>>>>>>>>>>>>>>>>>>>>>>>>>>>>>>>>>>>>>>>>>>>>>>>>>>>>>>>>>>>>>>>>>>>>>>>>>>**X..",
".X>**********************************************************************************************&X.",
".X>***&&&&&&&&&&&&&&&&&&&&&&&&&&&&&&&&&&&&&&&&&&&&&&&&&&&&&&&&&&&&&&&&&&&&&&&&&&&&&&&&&&&&&&&&***&X.",
".X>**&XXXXXXXXXXXXXXXXXXXXXXXXXXXXXXXXXXXXXXXXXXXXXXXXXXXXXXXXXXXXXXXXXXXXXXXXXXXXXXXXXXXXXXXX&**&X.",
".X>*&X#######################################################################################XX**&X.",
".X>*&X#@@@@@@@@@@@@@@@@@@@@@@@@@@@@@@@@@@@@@@@@@@@@@@@@@@@@@@@@@@@@@@@@@@@@@@@@@@@@@@@@@@@@@@+X>*&X.",
".X>*&X#@@@@@@@@@@@@@@@@@@@@@@@@@@@@@@@@@@@@@@@@@@@@@@@@@@@@@@@@@@@@@@@@@@@@@@@@@@@@@@@@@@@@@@+X>*&X.",
".X>*&X#@@@@@@@@@@@@@@@@@@@@@@@@@@@@@@@@@@@@@@@@@@@@@@@@@@@@@@@@@@@@@@@@@@@@@@@@@@@@@@@@@@@@@@+X>*&X.",
".X>*&X#@@@@@@@@@@@@@@@@@@@@@@@@@@@@@@@@@@@@@@@@@@@@@@@@@@@@@@@@@@@@@@@@@@@@@@@@@@@@@@@@@@@@@@+X>*&X.",
".X>*&X#@@@@@@@@@@@@@@@@@@@@@@@@@@@@@@@@@@@@@@@@@@@@@@@@@@@@@@@@@@@@@@@@@@@@@@@@@@@@@@@@@@@@@@+X>*&X.",
".X>*&X#@@@@@@@@@@@@@@@XXXXXXXXXXXXXXXXXXXXX@@@@@@@@@@@@@@XXXXXXXXXXXXXXXXXXXXX@@@@@@@@@@@@@@@+X>*&X.",
".X>*&X#@@@@@@@@@@@@@@X>>>>>>>>>>>>>>>>>>>*&X@@@@@@@@@@@@X>>>>>>>>>>>>>>>>>>>*&X@@@@@@@@@@@@@@+X>*&X.",
".X>*&X#@@@@@@@@@@@@@X>#XXXXXXXXXXXXXXXXXXX@&X@@@@@@@@@@X>#XXXXXXXXXXXXXXXXXXX@&X@@@@@@@@@@@@@+X>*&X.",
".X>*&X#@@@@@@@@@@@@@X>X:#################@X&X@@@@@@@@@@X>X:#################@X&X@@@@@@@@@@@@@+X>*&X.",
".X>*&X#@@@@@@@@@@@@@X>#XXXXXXXXXXXXXXXXXXX@&X@@@@@@@@@@X>#XXXXXXXXXXXXXXXXXXX@&X@@@@@@@@@@@@@+X>*&X.",
".X>*&X#@@@@@@@@@@@@@X>X:#################@X&X@@@@@@@@@@X>X:#################@X&X@@@@@@@@@@@@@+X>*&X.",
".X>*&X#@@@@@@@@@@@@@X>#XXXXXXXXXXXXXXXXXXX@&X@@@@@@@@@@X>#XXXXXXXXXXXXXXXXXXX@&X@@@@@@@@@@@@@+X>*&X.",
".X>*&X#@@@@@@@@@@@@@X>X:#################@X&X@@@@@@@@@@X>X:#################@X&X@@@@@@@@@@@@@+X>*&X.",
".X>*&X#@@@@@@@@@@@@@X>#XXXXXXXXXXXXXXXXXXX@&X@@@@@@@@@@X>#XXXXXXXXXXXXXXXXXXX@&X@@@@@@@@@@@@@+X>*&X.",
".X>*&X#@@@@@@@@@@@@@X>X:#################@X&X@@@@@@@@@@X>X:#################@X&X@@@@@@@@@@@@@+X>*&X.",
".X>*&X#@@@@@@@@@@@@@X>#XXXXXXXXXXXXXXXXXXX@&X@@@@@@@@@@X>#XXXXXXXXXXXXXXXXXXX@&X@@@@@@@@@@@@@+X>*&X.",
".X>*&X#@@@@@@@@@@@@@X>X#@@@@@@@@@@@@@@@@@+X&X@@@@@@@@@@X>X#@@@@@@@@@@@@@@@@@+X&X@@@@@@@@@@@@@+X>*&X.",
".X>*&X#@@@@@@@@@@@@@X>XXXXXXXXXXXXXXXXXXXXX&X@@@@@@@@@@X>XXXXXXXXXXXXXXXXXXXXX&X@@@@@@@@@@@@@+X>*&X.",
".X>*&X#@@@@@@@@@@@@@@X>*******************&X@@@@@@@@@@@@X>*******************&X@@@@@@@@@@@@@@+X>*&X.",
".X>*&X#@@@@@@@@@@@@@@@XXXXXXXXXXXXXXXXXXXXX@@@@@@@@@@@@@@XXXXXXXXXXXXXXXXXXXXX@@@@@@@@@@@@@@@+X>*&X.",
".X>*&X#@@@@@@@@@@@@@@@@@@@@@@@@@@@@@@@@@@@@@@@@@@@@@@@@@@@@@@@@@@@@@@@@@@@@@@@@@@@@@@@@@@@@@@+X>*&X.",
".X>*&X#@@@@@@@@@@@@@@@@@@@@@@@@@@@@@@@@@@@@@@@@@@@@@@@@@@@@@@@@@@@@@@@@@@@@@@@@@@@@@@@@@@@@@@+X>*&X.",
".X>*&X#@@@@@@@@@@@@@@@@@@@@@@@@@@@@@@@@@@@@@@@@@@@@@@@@@@@@@@@@@@@@@@@@@@@@@@@@@@@@@@@@@@@@@@+X>*&X.",
".X>*&X#@@@@@@@@@@@@@@@@@@@@@@@@@@@@@@@@@@@@@@@@@@@@@@@@@@@@@@@@@@@@@@@@@@@@@@@@@@@@@@@@@@@@@@+X>*&X.",
".X>*&X#@@@@@@@@@@@@@@@@@@@@@@@@@@@@@@@@@@@@@@@@@@@@@@@@@@@@@@@@@@@@@@@@@@@@@@@@@@@@@@@@@@@@@@+X>*&X.",
".X>*&X#@@@@@@@@@@@@@@@@@@@@@@@@@@@@@@@@@@@@@@@@@@@@@@@@@@@@@@@@@@@@@@@@@@@@@@@@@@@@@@@@@@@@@@+X>*&X.",
".X>*&X#@@@@@@@@@@@@@@@@@@@@@@@@@@@@@@@@@@@@@@@@@@@@@@@@@@@@@@@@@@@@@@@@@@@@@@@@@@@@@@@@@@@@@@+X>*&X.",
".X>*&X+XXXXXXXXXXXXXXXXXXXXXXXXXXXXXXXXXXXXXXXXXXXXXXXXXXXXXXXXXXXXXXXXXXXXXXXXXXXXXXXXXXXXXXXX>*&X.",
".X>*&X@+++=+-+=++++++++++=+-+=++++++++++++++++=+-+=+-+=+-+++++++++++++-+=+=++++++++++-+=+=+++XX>*&X.",
".X>*&X+XXXXXXXXXXXXXXXXXXXXXXXXXXXXXXXXXXXXXXXXXXXXXXXXXXXXXXXXXXXXXXXXXXXXXXXXXXXXXXXXXXXXXXXX>*&X.",
".X>*&X#@@@@@@@@@@X@@@@@@@@@@@@@@@@@@@@@@@@@@@@@@@@@@@@@@@@@@@@@@@@@@@@@@@@@@@@@@@@@@@@@@@@@@@+X>*&X.",
".X>*&X#@@@@@@@@@@X@@@@@@@@@@@@XXXXXXXXXXXXXXXXXXXXXXXXXXXXXXXXXXXXXXXX@@@@@@@@@@@@@@@@@@@@@@@+X>*&X.",
".X>*&X#@@@@@@@@@@X@@@@@@@@@@@X>>>>>>>>>>>>>>>>>>>>>>>>>>>>>>>>>>>>>>>*X@@@@@@@@@@@@@@@@@@@@@@+X>*&X.",
".X>*&X#@@@@@@@@@@X@@@@@@@@@@X>*****************************************X@@@@@@@@@@@@@@@@@@@@@+X>*&X.",
".X>*&X#@@@@@@@@@@X@@@@@@@@@X>**&XXXXXXXXXXXXXXXXXXXXXXXXXXXXXXXXXXXX&**&X@@@@@@@@@@@@@@@@@@@@+X>*&X.",
".X>*&X#@@@@@@@@@@X@@@@@@@@@X>*&X                                    X&*&X@@@@@@@@@@@@@@@@@@@@+X>*&X.",
".X>*&X#@@@@@@@@@@X@@@@@@@@@X>*X                                      X*&X@@@@@@@@@@@@@@@@@@@@+X>*&X.",
".X>*&X#@@@@@@@@@@X@@@@@@@@@X>*X                                      X*&X@@@@@@@@@@@@@@@@@@@@+X>*&X.",
".X>*&X#@@@@@@@@@@X@@@@@@@@@X>*X                                      X*&X@@@@@@@@@@@@@@@@@@@@+X>*&X.",
".X>*&X#@@@@@@@@@@X@@@@@@@@@X>*X                                      X*&X@@@XXXXXXXXXXXXXX@@@+X>*&X.",
".X>*&X#@@@@@@@@@@X@@@@@@@@@X>*X                                      X*&X@@X++++++++++++++X@@+X>*&X.",
".X>*&X#@@@@XXXXXXXXXXXX@@@@X>*X                                      X*&X@@X+X++++++++++X+X@@+X>*&X.",
".X>*&X#@@@X++++++++++++X@@@X>*X                                      X*&X@@X++++++++++++++X@@+X>*&X.",
".X>*&X#@@@X+X++++++++X+X@@@X>*X                                      X*&X@@X++XXXXXXXXXX++X@@+X>*&X.",
".X>*&X#@@@X++++++++++++X@@@X>*X                                      X*&X@@X+XooooooooooX+X@@+X>*&X.",
".X>*&X#@@@X++++++++++++X@@@X>*X                                      X*&X@@X+XoOOOOOOOOoX+X@@+X>*&X.",
".X>*&X#@@@X++++++++++++X@@@X>*X                                      X*&X@@X+XoO;;O;;OOoX+X@@+X>*&X.",
".X>*&X#@@@X++++++++++++X@@@X>*X                                      X*&X@@X+XoOOOOOOOOoX+X@@+X>*&X.",
".X>*&X#@@@X++++++++++++X@@@X>*X                                      X*&X@@X+XoO;O;O;;OoX+X@@+X>*&X.",
".X>*&X#@@@X++++++++++++X@@@X>*X                                      X*&X@@X+XoOOOOOOOOoX+X@@+X>*&X.",
".X>*&X#@@@X++++++++++++X@@@X>*X                                      X*&X@@X+XoOOOOOOOOoX+X@@+X>*&X.",
".X>*&X#@@@X++++++++++++X@@@X>*X                                      X*&X@@X+XooooooooooX+X@@+X>*&X.",
".X>*&X#@@@X+X++++++++X+X@@@X>*X                                      X*&X@@X++XXXXXXXXXX++X@@+X>*&X.",
".X>*&X#@@@X++++++++++++X@@@X>*X                                      X*&X@@X++++++++++++++X@@+X>*&X.",
".X>*&X#@@@@XXXXXXXXXXXX@@@@X>*X                                      X*&X@@X+X+XXXXXXXX+X+X@@+X>*&X.",
".X>*&X#@@@@@@@@@@X@@@@@@@@@X>*X                                      X*&X@@X++++++++++++++X@@+X>*&X.",
".X>*&X#@@@@XXXXXXXXXXXX@@@@X>*X                                      X*&X@@@XXXXXXXXXXXXXX@@@+X>*&X.",
".X>*&X#@@@X++++++++++++X@@@X>*X                                      X*&X@@@@@@@@@@@@@@@@@@@@+X>*&X.",
".X>*&X#@@@X+X++++++++X+X@@@X>*X                                      X*&X@@@@@@@@@@@@@@@@@@@@+X>*&X.",
".X>*&X#@@@X++++++++++++X@@@X>*X                                      X*&X@@@XXXXXXXXXXXXXX@@@+X>*&X.",
".X>*&X#@@@X++++++++++++X@@@X>*X                                      X*&X@@X++++++++++++++X@@+X>*&X.",
".X>*&X#@@@X++++++++++++X@@@X>*X                                      X*&X@@X+X+XXXXXXXX+X+X@@+X>*&X.",
".X>*&X#@@@X++++++++++++X@@@X>*X                                      X*&X@@X++X%%X%%X%%X++X@@+X>*&X.",
".X>*&X#@@@X++++++++++++X@@@X>*X                                      X*&X@@X++X%%+%%+%%X++X@@+X>*&X.",
".X>*&X#@@@X++++++++++++X@@@X>*X                                      X*&X@@X++X$$X$$X$$X++X@@+X>*&X.",
".X>*&X#@@@X++++++++++++X@@@X>*X                                      X*&X@@X+X+XXXXXXXX+X+X@@+X>*&X.",
".X>*&X#@@@X+X++++++++X+X@@@X>*X                                      X*&X@@X++++++++++++++X@@+X>*&X.",
".X>*&X#@@@X++++++++++++X@@@X>*X                                      X*&X@@@XXXXXXXXXXXXXX@@@+X>*&X.",
".X>*&X#@@@@XXXXXXXXXXXX@@@@X>*X                                      X*&X@@@@@@@@@@@@@@@@@@@@+X>*&X.",
".X>*&X#@@@@@@@@@@X@@@@@@@@@X>*X                                      X*&X@@@@@@@@@@@@@@@@@@@@+X>*&X.",
".X>*&X#@@@@@@@@@@X@@@@@@@@@X>*X                                      X*&X@@@@@@@@@@@@@@@@@@@@+X>*&X.",
".X>*&X#@@@@@@@@@@X@@@@@@@@@X>*X                                      X*&X@@@@@@@@@@@@@@@@@@@@+X>*&X.",
".X>*&X#@@@@@@@@@@X@@@@@@@@@X>*X                                      X*&X@@@@@@@@@@@@@@@@@@@@+X>*&X.",
".X>*&X#@@@@@@@@@@X@@@@@@@@@X>*X                                      X*&X@@@@@@@@@@@@@@@@@@@@+X>*&X.",
".X>*&X#@@@@@@@@@@X@@@@@@@@@X>*X                                      X*&X@@@@@@@@@@@@@@@@@@@@+X>*&X.",
".X>*&X#@@@@@@@@@@X@@@@@@@@@X>*X                                      X*&X@@@@@@@@@@@@@@@@@@@@+X>*&X.",
".X>*&X#@@@@@@@@@@XXXXXXXXXXX>*X                                      X*&X@@@@@@@@@@@@@@@@@@@@+X>*&X.",
".X>*&X#@@@@@@@@@@@@@@@@@@@@X>*X                                      X*&X@@@@@@@@@@@@@@@@@@@@+X>*&X.",
".X>*&X#@@@@@@@@@@@@@@@@@@@@X>*X                                      X*&X@@@@@@@@@@@@@@@@@@@@+X>*&X.",
".X>*&X#@@@@@@@@@@@@@@@@@@@@X>*X                                      X*&X@@@@@@@@@@@@@@@@@@@@+X>*&X.",
".X>*&X#@@@@@@@@@@@@@@@@@@@@X>*X                                      X*&X@@@@@@@@@@@@@@@@@@@@+X>*&X.",
".X>*&X#@@@@@@@@@@@@@@@@@@@@X>*X                                      X*&X@@@@@@@@@@@@@@@@@@@@+X>*&X.",
".X>*&X#@@@@@@@@@@@@@@@@@@@@X>*X                                      X*&X@@@@@@@@@@@@@@@@@@@@+X>*&X.",
".X>*&X#@@@XXXXXXXXX@@@@@@@@X>*X                                      X*&X@@@@@@@@XXXXXXXXX@@@+X>*&X.",
".X>*&X#@@X+X+X+X+X+X@@@@@@@X>**X                                    X**&X@@@@@@@X+X+X+X+X+X@@+X>*&X.",
".X>*&XXXXX+X+X+X+X+XXXXXXXXX>**>XXXXXXXXXXXXXXXXXXXXXXXXXXXXXXXXXXXX>**&XXXXXXXXX+X+X+X+X+XXXXX>*&X.",
".X>*&X#@@X+X+X+X+X+X@@@@@@@@X***>>>>>>>>>>>>>>>>>>>>>>>>>>>>>>>>>>>>***X@@@@@@@@X+X+X+X+X+X@@+X>*&X.",
".X>*&X#@@X+X+X+X+X+X@@@@@@@@@X****************************************X@@@@@@@@@X+X+X+X+X+X@@+X>*&X.",
".XXXXXXXXXXXXXXXXXXXXXXXXXXXXXXXXXXXXXXXXXXXXXXXXXXXXXXXXXXXXXXXXXXXXXXXXXXXXXXXXXXXXXXXXXXXXXX>*&X.",
"....................................................................................................",
"...................................................................................................."
};
