/* XPM */
static char *f92505c1021f4c92c185c23dcb9d62f4SWmv8sO90gIrhbBU[] = {
/* columns rows colors chars-per-pixel */
"5 5 21 1 ",
"  c None",
". c #470000",
"X c #490000",
"o c #650000",
"O c #690000",
"+ c #6B0000",
"@ c #870000",
"# c #900000",
"$ c #980000",
"% c #BC0101",
"& c #C70101",
"* c #CB0101",
"= c #CC0404",
"- c #DE0909",
"; c #E20606",
": c #E50404",
"> c #F11616",
", c #F81F1F",
"< c #F82020",
"1 c #F92C2C",
"2 c #FD3B3B",
/* pixels */
" $*: ",
"+%>1<",
"o&,2<",
"X@=-;",
" .+# "
};
