/* XPM */
static char *c572552968d24397af401e8142847db5V6TJyC1BOVE3iSIp[] = {
/* columns rows colors chars-per-pixel */
"4 4 12 1 ",
"  c None",
". c #650000",
"X c #7F0000",
"o c #960000",
"O c #B70101",
"+ c #BD0404",
"@ c #DB0909",
"# c #E30909",
"$ c #ED1414",
"% c #EB1818",
"& c #F92929",
"* c #FB3131",
/* pixels */
" O# ",
"X@*&",
".+%$",
" .o "
};
