/* XPM */
static char *_b5cab8a02b4498ef7fdf50996a683891OAkP8uz1UmiN6f6[] = {
/* columns rows colors chars-per-pixel */
"10 10 62 1 ",
"  c None",
". c #3B0000",
"X c #3C0000",
"o c #3F0000",
"O c #400000",
"+ c #460000",
"@ c #490000",
"# c #500000",
"$ c #5D0000",
"% c #600000",
"& c #630000",
"* c #6E0000",
"= c #730000",
"- c #770000",
"; c #7B0000",
": c #880000",
"> c #8A0000",
", c #8B0000",
"< c #9B0000",
"1 c #A50000",
"2 c #B30000",
"3 c #B50000",
"4 c #BA0000",
"5 c #BC0000",
"6 c #C00000",
"7 c #C40000",
"8 c #C80000",
"9 c #CC0000",
"0 c #CE0000",
"q c #D00000",
"w c #D10000",
"e c #D40000",
"r c #DB0101",
"t c #DE0101",
"y c #E10101",
"u c #E30101",
"i c #E40303",
"p c #E80303",
"a c #EA0303",
"s c #EB0505",
"d c #EC0606",
"f c #EF0909",
"g c #F30E0E",
"h c #F40D0D",
"j c #F41010",
"k c #F51212",
"l c #F51313",
"z c #F61818",
"x c #F71818",
"c c #F61919",
"v c #F71C1C",
"b c #F92424",
"n c #F92525",
"m c #FA2B2B",
"M c #FB2D2D",
"N c #FB3030",
"B c #FC3333",
"V c #FC3636",
"C c #FD3C3C",
"Z c #FE4343",
"A c #FF4D4D",
"S c #FF5757",
/* pixels */
"    15    ",
"  -18ria  ",
" $<qskvck ",
" *4ukMZCb ",
"o=6icVSAmx",
"o&3ugbBNvg",
" @,7ufkhd ",
" .@:39eq9 ",
"  o+&;><  ",
"    .O    "
};
