/* XPM */
static char *_b7af18f38084da78ffefb68921091a10eSA13RfiX1248TU[] = {
/* columns rows colors chars-per-pixel */
"32 32 247 2 ",
"   c None",
".  c #3C0000",
"X  c #3D0000",
"o  c #3E0000",
"O  c #410000",
"+  c #420000",
"@  c #430000",
"#  c #440000",
"$  c #450000",
"%  c #460000",
"&  c #470000",
"*  c #490000",
"=  c #4A0000",
"-  c #4B0000",
";  c #4E0000",
":  c #4F0000",
">  c #510000",
",  c #520000",
"<  c #550000",
"1  c #560000",
"2  c #570000",
"3  c #580000",
"4  c #590000",
"5  c #5A0000",
"6  c #5B0000",
"7  c #5C0000",
"8  c #5D0000",
"9  c #5F0000",
"0  c #620000",
"q  c #640000",
"w  c #650000",
"e  c #660000",
"r  c #670000",
"t  c #680000",
"y  c #690000",
"u  c #6B0000",
"i  c #6D0000",
"p  c #6F0000",
"a  c #710000",
"s  c #720000",
"d  c #730000",
"f  c #750000",
"g  c #760000",
"h  c #770000",
"j  c #780000",
"k  c #7A0000",
"l  c #7B0000",
"z  c #7C0000",
"x  c #7D0000",
"c  c #7E0000",
"v  c #7F0000",
"b  c #800000",
"n  c #810000",
"m  c #820000",
"M  c #830000",
"N  c #840000",
"B  c #870000",
"V  c #880000",
"C  c #890000",
"Z  c #8B0000",
"A  c #8C0000",
"S  c #8D0000",
"D  c #8E0000",
"F  c #8F0000",
"G  c #900000",
"H  c #950000",
"J  c #960000",
"K  c #970000",
"L  c #980000",
"P  c #990000",
"I  c #9A0000",
"U  c #9B0000",
"Y  c #9C0000",
"T  c #9F0000",
"R  c #A00000",
"E  c #A10000",
"W  c #A20000",
"Q  c #A30000",
"!  c #A40000",
"~  c #A50000",
"^  c #A60000",
"/  c #A70000",
"(  c #A80000",
")  c #A90000",
"_  c #AA0000",
"`  c #AB0000",
"'  c #AC0000",
"]  c #AD0000",
"[  c #AE0000",
"{  c #B00000",
"}  c #B10000",
"|  c #B20000",
" . c #B30000",
".. c #B40000",
"X. c #B50000",
"o. c #B60000",
"O. c #B70000",
"+. c #B80000",
"@. c #B90000",
"#. c #BA0000",
"$. c #BB0000",
"%. c #BC0000",
"&. c #BD0000",
"*. c #BE0000",
"=. c #BF0000",
"-. c #C00000",
";. c #C10000",
":. c #C20000",
">. c #C30000",
",. c #C40000",
"<. c #C50000",
"1. c #C60000",
"2. c #C70000",
"3. c #C80000",
"4. c #C90000",
"5. c #CA0000",
"6. c #CB0000",
"7. c #CC0000",
"8. c #CD0000",
"9. c #CE0000",
"0. c #CF0000",
"q. c #D00000",
"w. c #D10000",
"e. c #D20000",
"r. c #D30000",
"t. c #D40000",
"y. c #D50000",
"u. c #D60000",
"i. c #D70000",
"p. c #D80000",
"a. c #D90000",
"s. c #DA0000",
"d. c #DB0000",
"f. c #DC0000",
"g. c #DD0000",
"h. c #DE0000",
"j. c #DF0000",
"k. c #E00000",
"l. c #E10000",
"z. c #E20000",
"x. c #E30000",
"c. c #E40000",
"v. c #E50000",
"b. c #E60000",
"n. c #E70000",
"m. c #E80000",
"M. c #E90000",
"N. c #EA0000",
"B. c #EB0000",
"V. c #EC0000",
"C. c #ED0000",
"Z. c #EE0000",
"A. c #EF0000",
"S. c #F00000",
"D. c #F00101",
"F. c #F10101",
"G. c #F10202",
"H. c #F20303",
"J. c #F20404",
"K. c #F20505",
"L. c #F20606",
"P. c #F20707",
"I. c #F30707",
"U. c #F30808",
"Y. c #F30909",
"T. c #F30A0A",
"R. c #F30B0B",
"E. c #F40C0C",
"W. c #F40D0D",
"Q. c #F40E0E",
"!. c #F40F0F",
"~. c #F41010",
"^. c #F51010",
"/. c #F51111",
"(. c #F51212",
"). c #F51313",
"_. c #F51414",
"`. c #F51515",
"'. c #F61515",
"]. c #F61616",
"[. c #F61717",
"{. c #F61818",
"}. c #F61919",
"|. c #F61A1A",
" X c #F71A1A",
".X c #F71B1B",
"XX c #F71C1C",
"oX c #F71D1D",
"OX c #F71E1E",
"+X c #F81E1E",
"@X c #F81F1F",
"#X c #F82020",
"$X c #F82121",
"%X c #F82222",
"&X c #F82323",
"*X c #F92323",
"=X c #F92424",
"-X c #F92525",
";X c #F92626",
":X c #F92727",
">X c #FA2828",
",X c #FA2929",
"<X c #FA2A2A",
"1X c #FA2C2C",
"2X c #FB2C2C",
"3X c #FB2D2D",
"4X c #FB2E2E",
"5X c #FB2F2F",
"6X c #FB3030",
"7X c #FC3131",
"8X c #FC3232",
"9X c #FC3333",
"0X c #FC3434",
"qX c #FC3535",
"wX c #FD3636",
"eX c #FD3737",
"rX c #FD3838",
"tX c #FD3A3A",
"yX c #FE3A3A",
"uX c #FE3B3B",
"iX c #FE3C3C",
"pX c #FE3D3D",
"aX c #FE3E3E",
"sX c #FE3F3F",
"dX c #FF4040",
"fX c #FF4141",
"gX c #FF4242",
"hX c #FF4444",
"jX c #FF4848",
"kX c #FF4949",
"lX c #FF4B4B",
"zX c #FF4C4C",
"xX c #FF4F4F",
"cX c #FF5050",
"vX c #FF5151",
"bX c #FF5252",
"nX c #FF5454",
"mX c #FF5656",
"MX c #FF5959",
"NX c #FF5C5C",
"BX c #FF5E5E",
"VX c #FF5F5F",
"CX c #FF6262",
"ZX c #FF6767",
"AX c #FF6A6A",
"SX c #FF6C6C",
"DX c #FF7171",
/* pixels */
"                                                                ",
"                                                                ",
"                      s N J / { O.%.%.;.2.                      ",
"                  0 l G Q { #.%.2.5.q.q.q.t.q.                  ",
"              : w M J ' #.;.5.7.q.p.j.x.x.x.n.x.x.              ",
"            = w v P ' %.;.7.q.p.x.B.V.V.S.V.S.S.V.B.            ",
"          @ 9 l J { %.2.7.p.x.n.V.S.Y.Y.!.!.!.Y.Y.L.S.          ",
"        . < s D _ O.2.7.p.n.B.L.Y.!.^.[.{.{.].].[.~.!.Y.        ",
"        $ 0 M Q O.;.7.p.x.V.L.E.^.}.XX$X$X$X$X$XXX}.[.!.        ",
"      . > s G ' #.2.t.j.V.L.Y.^.}.$X=X<X5X8X5X3X<X=XXX}.^.      ",
"      . 9 l P O.;.7.p.n.S.Y.^.}.$X<X3X8X0XpXuX0X8X3X=X$X}.      ",
"    . $ w N Q O.2.q.j.V.L.!.}.$X<X3XuXpXhXkXkXgXuX0X3X=XXX^.    ",
"    . = t V _ #.2.q.x.V.I.^.}.=X<X0XpXkXmXBXMXbXgXuX8X<X$X[.    ",
"    . = i V ' %.5.t.x.S.Y.^.}.=X3XuXpXbXCXDXSXBXzXpX8X<X$X}.    ",
"    . = i D _ #.5.t.n.V.Y.^.XX=X3X0XgXzXBXAXAXMXkXpX0X<X$X[.    ",
"    . = w V / #.2.q.j.V.L.!.}.$X3X8XpXhXbXmXbXzXgX0X6X=X+X[.    ",
"    . @ 0 M Q #.;.q.j.B.S.Y.[.+X=X3X0XuXgXgXpXpXuX6X<X$X}.^.    ",
"    . . 6 h J { ;.5.t.x.S.I.!.{.$X=X3X3X0X0X0X0X3X<X=X}.[.!.    ",
"    . . : t V _ #.2.q.j.B.L.Y.^.[.XX&X=X<X<X<X<X=X$X}.[.!.L.    ",
"    . . @ 9 v P { %.5.q.j.B.S.Y.E.[.}.XXXX&XXXXXXX}.^.!.L.S.    ",
"    . . . : t N / O.;.5.t.x.n.V.L.Y.E.^.[.~.[.^.^.!.Y.S.V.n.    ",
"      . . . < h D / O.;.5.q.p.n.B.V.L.L.Y.Y.L.Y.L.S.V.B.x.      ",
"      . . . @ 9 h D / O.;.5.q.t.j.x.n.B.B.V.V.B.B.n.x.p.t.      ",
"        . . . $ 9 h V Q { %.;.5.7.q.t.j.p.j.j.j.p.t.q.7.        ",
"        . . . . $ 6 i M P _ { #.;.;.2.5.7.7.7.5.5.5.;.%.        ",
"          . . . . . > w l N J / { O.#.#.%.;.%.#.#.O.O.          ",
"            . . . . . $ < w h M D J T / _ _ _ / Q P             ",
"              . . . . . . @ > 9 w s h v M N M M v               ",
"                  . . . . . . . $ = > 6 6 9 6                   ",
"                      . . . . . . . . . .                       ",
"                                                                ",
"                                                                "
};
