/* XPM */
static char *_062b7b261114765eca370dcda4e3a3fVCeRgKAMb31Q7GPS[] = {
/* columns rows colors chars-per-pixel */
"32 32 112 2 ",
"   c None",
".  c #000000",
"X  c gray3",
"o  c #390000",
"O  c #373737",
"+  c gray22",
"@  c #420000",
"#  c #4B0000",
"$  c #530000",
"%  c #5C0000",
"&  c #650000",
"*  c #6B0000",
"=  c #730000",
"-  c #7C0000",
";  c #646464",
":  c #6C6C6C",
">  c #7E7E7E",
",  c #830000",
"<  c #8C0000",
"1  c #930000",
"2  c #9A0000",
"3  c #A40000",
"4  c #AB0000",
"5  c #B40000",
"6  c #BC0000",
"7  c #C30000",
"8  c #CB0000",
"9  c #D40000",
"0  c #DC0000",
"q  c #E30000",
"w  c #EC0000",
"e  c #F30202",
"r  c #F40807",
"t  c #F50D0D",
"y  c #F50C0C",
"u  c #F60D0D",
"i  c #F60E0E",
"p  c #F60F0F",
"a  c #F50909",
"s  c #F61010",
"d  c #F61111",
"f  c #F61212",
"g  c #F61313",
"h  c #F71313",
"j  c #F71414",
"k  c #F71515",
"l  c #F71616",
"z  c #F71717",
"x  c #F71818",
"c  c #F81818",
"v  c #F81919",
"b  c #F81A1A",
"n  c #F81B1B",
"m  c #F81C1C",
"M  c #F81D1D",
"N  c #F91E1E",
"B  c #F91F1F",
"V  c #F92020",
"C  c #F92121",
"Z  c #F92222",
"A  c #FA2323",
"S  c #FA2423",
"D  c #FA2424",
"F  c #FA2525",
"G  c #FA2625",
"H  c #FA2626",
"J  c #FA2827",
"K  c #FA2828",
"L  c #FB2828",
"P  c #FB2929",
"I  c #FB2A2A",
"U  c #FB2B2B",
"Y  c #FB2C2C",
"T  c #FB2D2D",
"R  c #FC2E2E",
"E  c #FC2F2F",
"W  c #FC3030",
"Q  c #FC3131",
"!  c #FC3232",
"~  c #FD3333",
"^  c #FD3434",
"/  c #FD3535",
"(  c #FD3737",
")  c #FE3737",
"_  c #FE3838",
"`  c #FE3A3A",
"'  c #FE3B3B",
"]  c #FE3D3D",
"[  c #FF3E3E",
"{  c #FF3F3F",
"}  c #FF4040",
"|  c #FF4242",
" . c #FF4646",
".. c #FF4747",
"X. c #FF4848",
"o. c #FF4A4A",
"O. c #FF4B4B",
"+. c #FF4E4E",
"@. c #FF4F4F",
"#. c #FF5050",
"$. c #FF5151",
"%. c #FF5353",
"&. c #FF5555",
"*. c #FF5959",
"=. c #FF5C5C",
"-. c #FF5E5E",
";. c #FF5F5F",
":. c #FF6262",
">. c #FF6767",
",. c #FF6A6A",
"<. c #FF6D6D",
"1. c #FF7272",
/* pixels */
". . . . . . . . . . . . X + :     : + X . . . . . . . . . . . . ",
". . . . . . . . . X >                     > X . . . . . . . . . ",
". . . . . . . .       = , 1 4 5 6 6 6 7 7       . . . . . . . . ",
". . . . . . +     & - < 3 5 6 6 7 8 8 9 9 9 9     + . . . . . . ",
". . . . . ;   # & , 2 4 6 6 7 8 9 0 0 q q q q q q   ; . . . . . ",
". . . . ;   # & - 2 5 6 7 9 9 0 q w w w e e e e w w   ; . . . . ",
". . . +   @ & - 2 5 6 7 9 9 q w w e e e e r e e e e e   + . . . ",
". . .   o $ = < 4 6 7 9 0 q w e e r a y p d h p y r r e   . . . ",
". .     @ & , 3 5 7 8 0 q w e r a d l N N N N N c d p r     . . ",
". X   o $ = 1 4 6 8 9 0 w e e a g x C D L L L L D V k p r   X . ",
". >   o % - 2 5 7 8 0 w e e a d n S L ! / _ / / E P C n d   > . ",
".   o @ & , 3 6 7 9 0 w e r p n C U ^ _ | O. .[ _ Q P C k a   . ",
"X   o @ * < 4 6 8 9 q w e r h N L ! _ X.&.;.*.%.| _ E D n p   X ",
"+   o # * < 4 6 8 9 q w e a k N U / [ %.:.1.<.;.O._ Q D n d   + ",
":   o # * < 4 6 8 9 q e e a h N L ~ [ @.;.,.>.*.O._ E D n d   : ",
"    o @ * < 4 6 7 9 q w e r h n D W / | @.&.%.O.[ / E C c p     ",
"    o @ & , 3 6 7 9 0 w e e p l C L Q _ [ [ } _ / Q D N d r     ",
":   o o $ - 1 5 6 8 0 q w e r p x C J R Q / Q Q U D N j p r   : ",
"+   o o # * < 4 6 7 9 0 w e e r s l N C D D D A C n d p r e   + ",
"X   o o o & - 2 5 7 8 9 0 w e e r y s l k c n n l p a r e e   X ",
".   o o o # * < 3 5 7 8 9 q w w e e r r a p a a r r e e w q   . ",
". >   o o o % = < 4 6 7 8 9 0 q w w e w e e e e e e w w q   > . ",
". X   o o o @ % = 1 4 5 6 8 9 9 0 q w w w e w w w q q 0 9   X . ",
". .     o o o @ % = < 3 5 6 7 8 8 9 0 0 0 0 0 0 0 9 9 8     . . ",
". . .   o o o o @ % * , 2 4 5 6 7 7 8 8 8 8 8 8 8 8 7 6   . . . ",
". . . O   o o o o o $ & - < 2 3 5 5 6 6 7 6 7 6 6 5 6   + . . . ",
". . . . ;   o o o o o @ $ & = , < 1 3 3 4 4 4 4 3 2   ; . . . . ",
". . . . . ;   o o o o o o @ $ % * = - - , , , , -   ; . . . . . ",
". . . . . . O     o o o o o o o @ # # $ % % %     + . . . . . . ",
". . . . . . . .       o o o o o o o o o o       . . . . . . . . ",
". . . . . . . . . X >                     > X . . . . . . . . . ",
". . . . . . . . . . . . X + :     : + X . . . . . . . . . . . . "
};
