/* XPM */
static char *_3582868607c45e7c0477035a06dc6c8B3rs2YZTPWUuxmXz[] = {
/* columns rows colors chars-per-pixel */
"40 40 82 1 ",
"  c #15191B",
". c #181C1E",
"X c #1B1F21",
"o c #1D2225",
"O c #1F2428",
"+ c #202527",
"@ c #21262A",
"# c #232A2D",
"$ c #262D31",
"% c #282F32",
"& c #273133",
"* c #2B3335",
"= c #2E3539",
"- c #2F383B",
"; c #30373B",
": c #323A3D",
"> c #353D41",
", c #383F43",
"< c #344041",
"1 c #354043",
"2 c #364243",
"3 c #364144",
"4 c #374045",
"5 c #364244",
"6 c #374444",
"7 c #374445",
"8 c #384043",
"9 c #3A4145",
"0 c #3B4247",
"q c #3A4446",
"w c #394646",
"e c #394647",
"r c #3C4348",
"t c #394448",
"y c #3A4448",
"u c #394648",
"i c #3A4648",
"p c #3C4449",
"a c #3E4549",
"s c #3D454A",
"d c #3C464A",
"f c #3C474B",
"g c #3F474C",
"h c #3A4849",
"j c #3B4849",
"k c #3B4949",
"l c #3B4A4A",
"z c #3F494C",
"x c #3F484D",
"c c #40474C",
"v c #40484C",
"b c #41494E",
"n c #404A4E",
"m c #404B4E",
"M c #424A4F",
"N c #434B4F",
"B c #434B50",
"V c #434D52",
"C c #444C51",
"Z c #444E52",
"A c #454E54",
"S c #454F54",
"D c #465054",
"F c #475156",
"G c #485054",
"H c #495156",
"J c #485157",
"K c #495257",
"L c #495258",
"P c #4A5458",
"I c #4B5459",
"U c #4C555A",
"Y c #4D555B",
"T c #4F585D",
"R c #4F585E",
"E c #50595F",
"W c #505A5F",
"Q c #545D62",
"! c #545D63",
"~ c #576066",
"^ c #5A646A",
"/ c #5E676E",
/* pixels */
">>N9899>,>:::>,%%*&*&*&$*&*G,,9qqkssqqq>",
">>&y999,,,,:::,;****&&&&&$%B>>>4qsq99q9>",
">,@qyq98>,>x;::@&&$&&&$&%%%s>-:>>>:>>2,>",
",,#Zqq,>,:%*;,NoO##O####%*>;:==:>:$*>>,>",
"Ns$I#ooooo@#*VIOk-$#O####*O#OOO=@@%%#@O-",
"VHHZ>NHEH&!IIVxFFFNZF Hs::VV99;:>*=@OOII",
"ykk9::::/IR44ykykxmsV#Rqkkky,>>>2;$$*2q7",
"ykk9>:::>FI247ffklmDV>Ikkkky42>>>44>%*>w",
"kk7<>=>>>sg>A4yxxkVI*%gyskk7742>>44k7*>q",
"q7::=>>:>=;*=y,yqxVO>>=,k777k74422244O9q",
"<<:->$#$=#,>>=:4qkV=>>>gy74474>>>4224*F>",
"..ooXX@O@ @X   X@@ &X XX         oo     ",
":9I!^!!YsZ,,>$^Vx<->qgVAxY=x-=*><-:FN0,:",
";::>>N,#%>,,>$Jy9>>q==>=>y>%$$&*2;2x00s:",
";::>>>>F,>,t=#V>>-&**=*>>>-$$&*>;*>>0s0:",
";:>>>>$N>,,t&O,=**&*=*-=>*%$$&O-==*=8c>:",
"::::2V#7*990&+;=&&*>=:::2$@%$#:*=:+@,>>:",
":;;;=F#H=:NH#OH;**>yVmxNH%X;#o:=No+*;%#@",
",=+ #&*****&**%# $ O-=:**>929& **;>>,+**",
":;Y2%**-===&;%#*~k72474,9>>99x#^,>:,,,>:",
"::,:&--****-$###W44>>,>=;2:::m$H>:;::,::",
":::;&-**&&&$$###-=->>-:::::;:8#z::>>>:,:",
">>:$*-*&&$$$###@y=$O=::::;-;;=#:::>>:::8",
",,,+***&&$$#$#@+>uxg$:-=*-===;+*:*>:;>:8",
">vNo2:;*&&%###$X$*;:>.:-::*##$X*-;::;:8;",
",;;;&;::; +;;:+O;*;;:::.   .$&##=-;&;;;,",
"888sqqqzm2Rv:8NNmG&HxkzI:**&%#$=D:22kqw2",
"8886288hqV!::qqsN0!DDyk!;**&**@:P67hqkw2",
"729>>>2qzxD*;28mN;YNkk4x-&&&$#O@;:2qq792",
"242&>>44y9k;;:68s,Yhqq29###$##O*-*$Dqq22",
"722>>94qq*>;=::>>;qhq2::#&#$###$$*$##422",
"::>s9>q2##*==:;-*=-=$==N$--##Oo2#=-&#O>:",
"@=&*&.*#+.O@@@%+XXX#;>-*$..   *=@=;=*===",
"22qv^-^kqNVN2NN9,!*!g,ygkfk74>^:qqkq>=:>",
"2qqk!=xk2:>:=>>>>>*/>,,ykkkk>#Q:<x22>>=>",
">:qkF#sy::::==:>,>=^:,,skyky>o9:--:>4>:=",
">:9k2Xk>>>,$==;>,,>A>>4ykuy>>o=====>>->>",
":>9sQ k-=,$$$;>,y,>,%>,r44>>>Xq$&**-===>",
"#oo+o #@OX$$%$@XX# OXXOOO#OOOoO@OOOO#$##",
"88#^Zc90ygBHAgZ,==**====->>IRxxDDD:!VNN>"
};
